<svg width="167" height="50" viewBox="0 0 167 50" fill="none" xmlns="http://www.w3.org/2000/svg">
<path d="M15.18 6.29305H6.5661V11.1884C6.5661 14.1529 4.91482 15.8561 2.02834 15.8561H0V24.3401H5.78597V38.8245C5.78597 45.1696 9.82965 49.1157 16.3372 49.1157C19.0222 49.1157 20.641 48.6086 21.3691 48.3031L21.6161 48.1991V40.1507L21.0505 40.3913C20.7255 40.5343 19.7633 40.6188 18.5476 40.6188C16.0642 40.6188 15.1865 39.7542 15.1865 37.3162V24.3336H21.6226V15.8496H15.1865V6.29305H15.18Z" fill="#03363D"/>
<path d="M35.808 15.8627H26.3489V48.6607H35.808V15.8627Z" fill="#03363D"/>
<path d="M31.0427 0C27.8247 0 25.3022 2.54843 25.3022 5.80547C25.3022 8.88049 27.9287 11.4809 31.0427 11.4809C34.2607 11.4809 36.7832 8.99101 36.7832 5.80547C36.7832 2.49642 34.3127 0 31.0427 0Z" fill="#03363D"/>
<path d="M57.8792 0.312057C50.5655 0.312057 45.8327 5.14237 45.8327 12.6186V15.8562H40.5018V24.08H45.8327V48.6542H55.3568V24.08H62.573V15.8497H55.3568V12.7421C55.3568 9.25106 57.9117 8.72447 59.4395 8.72447C60.7072 8.72447 61.5523 8.82198 62.0074 9.01702L62.573 9.25756V1.10519L62.3325 0.994672C61.5848 0.656615 59.8165 0.312057 57.8792 0.312057Z" fill="#03363D"/>
<path d="M76.7649 0.845154H67.3058V48.7257H76.7649V0.845154Z" fill="#03363D"/>
<path d="M111.5 42.4586V15.8497H102.041V34.8523C102.041 38.493 99.8827 40.7488 96.3982 40.7488C91.6589 40.7488 90.9502 36.9717 90.9502 34.7158V15.8497H81.4912V36.4776C81.4912 44.1424 86.6595 49.4993 94.0578 49.4993C97.6464 49.4993 100.708 48.2381 102.516 46.0602C102.548 46.8924 102.613 47.796 102.769 48.3551L102.847 48.6542H111.897L111.819 48.1731C111.624 47.0614 111.5 44.8705 111.5 42.4586Z" fill="#03363D"/>
<path d="M140.781 35.444L131.179 48.6542H143.076L146.723 43.6288L140.781 35.444Z" fill="#03363D"/>
<path d="M157.404 28.9298L166.902 15.8497H155.012L151.456 20.745L157.404 28.9298Z" fill="#03363D"/>
<path d="M155.038 32.1869L149.089 24.002L143.167 15.8497H131.277L143.141 32.1869L155.103 48.6542H167L155.038 32.1869Z" fill="#03363D"/>
<path d="M132.466 24.002L126.544 15.8497H114.653L126.524 32.1869L114.562 48.6542H126.453L132.466 40.3718L138.415 32.1869L132.466 24.002Z" fill="#FE5000"/>
</svg>
