<svg width="529" height="519" viewBox="0 0 529 519" fill="none" xmlns="http://www.w3.org/2000/svg">
<path d="M77.3949 472.716C180.634 533.852 348.003 533.864 451.302 472.716C554.601 411.568 554.529 312.453 451.302 251.317C348.075 190.182 180.694 190.182 77.455 251.317C-25.7842 312.453 -25.8323 411.58 77.3949 472.716Z" fill="#F5F5F5"/>
<path d="M439.604 286.832C423.566 294.479 397.524 294.479 381.498 286.832C365.472 279.186 365.448 266.779 381.498 259.18C397.548 251.582 423.578 251.534 439.604 259.18C455.63 266.827 455.654 279.174 439.604 286.832Z" fill="#E0E0E0"/>
<path d="M55.2489 395.362L186.465 471.105C188.078 471.923 189.862 472.35 191.671 472.35C193.48 472.35 195.264 471.923 196.877 471.105L445.303 327.65C448.176 325.991 448.176 323.297 445.303 321.638L314.086 245.895C312.475 245.071 310.691 244.641 308.881 244.641C307.07 244.641 305.286 245.071 303.675 245.895L55.2489 389.35C52.3755 391.009 52.3755 393.703 55.2489 395.362Z" fill="#37474F"/>
<path d="M128.287 428.977C130.523 430.11 132.994 430.7 135.501 430.7C138.007 430.7 140.478 430.11 142.714 428.977C146.706 426.669 146.706 422.966 142.714 420.621C140.477 419.495 138.006 418.908 135.501 418.908C132.995 418.908 130.525 419.495 128.287 420.621C124.295 422.93 124.295 426.669 128.287 428.977Z" fill="#263238"/>
<path d="M186.465 471.105L55.249 395.362C52.6761 393.871 52.4116 391.562 54.4435 389.903C53.1601 390.918 52.105 392.193 51.3468 393.643C50.5887 395.093 50.1445 396.686 50.0432 398.319V403.213C50.1418 405.019 50.6646 406.776 51.569 408.343C52.4734 409.909 53.7341 411.241 55.249 412.23L186.465 487.973C188.07 488.811 189.862 489.225 191.671 489.175V472.355C189.857 472.39 188.065 471.96 186.465 471.105V471.105Z" fill="#455A64"/>
<path d="M445.303 344.566C446.817 343.577 448.078 342.246 448.982 340.679C449.887 339.112 450.41 337.355 450.508 335.549V330.619C450.409 328.986 449.965 327.392 449.207 325.942C448.448 324.491 447.393 323.217 446.108 322.203C448.14 323.862 447.875 326.171 445.303 327.65L196.877 471.105C195.272 471.941 193.48 472.355 191.671 472.307V489.319C193.48 489.367 195.272 488.954 196.877 488.117L445.303 344.566Z" fill="#263238"/>
<path d="M213.011 452.59L92.243 382.858C90.5237 381.872 90.5237 380.249 92.243 379.251L291.015 264.494C291.981 264.002 293.05 263.746 294.135 263.746C295.219 263.746 296.288 264.002 297.255 264.494L418.071 334.226C419.79 335.224 419.79 336.835 418.071 337.833L219.215 452.698C218.244 453.166 217.178 453.399 216.1 453.381C215.023 453.362 213.965 453.091 213.011 452.59V452.59Z" fill="#FAFAFA"/>
<path d="M203.165 435.638L111.792 382.846C110.061 381.848 110.061 380.237 111.792 379.239L115.303 377.207C116.271 376.715 117.342 376.459 118.429 376.459C119.515 376.459 120.586 376.715 121.555 377.207L212.927 429.999C214.659 430.985 214.659 432.608 212.927 433.606L209.405 435.638C208.438 436.128 207.369 436.383 206.285 436.383C205.201 436.383 204.132 436.128 203.165 435.638V435.638Z" fill="#E6E6E6"/>
<path d="M212.735 439.353L219.384 435.518C219.793 435.3 220.27 435.247 220.717 435.37C221.164 435.493 221.548 435.782 221.788 436.179L224.866 441.517C225.359 442.383 224.974 442.924 223.988 442.719L213.011 440.603C211.965 440.411 211.869 439.858 212.735 439.353Z" fill="#0CC4B6"/>
<path d="M286.867 278.128C289.138 276.978 291.649 276.378 294.195 276.378C296.741 276.378 299.251 276.978 301.523 278.128C305.574 280.46 305.562 284.248 301.523 286.544C299.251 287.694 296.741 288.294 294.195 288.294C291.649 288.294 289.138 287.694 286.867 286.544C282.827 284.26 282.827 280.472 286.867 278.128Z" fill="#E6E6E6"/>
<path d="M378.985 328.491C380.705 329.489 380.705 331.1 378.985 332.098L360.807 342.642C359.838 343.134 358.767 343.391 357.681 343.391C356.595 343.391 355.524 343.134 354.555 342.642L297.315 309.604C295.596 308.606 295.596 306.995 297.315 305.997L313.726 296.523L308.845 288.107L378.985 328.491Z" fill="#E6E6E6"/>
<path d="M319.22 300.899L369.824 330.114C370.677 330.607 370.834 331.317 370.16 331.725C369.713 331.909 369.23 331.986 368.748 331.951C368.266 331.915 367.798 331.768 367.383 331.521L316.779 302.306C315.914 301.813 315.77 301.103 316.443 300.707C316.889 300.52 317.372 300.44 317.854 300.474C318.336 300.507 318.804 300.653 319.22 300.899V300.899Z" fill="#FAFAFA"/>
<path d="M314.327 303.736L364.918 332.952C365.784 333.445 365.94 334.154 365.267 334.563C364.818 334.747 364.332 334.824 363.848 334.788C363.364 334.753 362.895 334.606 362.478 334.358L311.886 305.143C311.02 304.65 310.864 303.941 311.538 303.544C311.985 303.357 312.471 303.278 312.955 303.311C313.439 303.344 313.909 303.49 314.327 303.736V303.736Z" fill="#FAFAFA"/>
<path d="M309.434 306.574L360.025 335.789C360.891 336.282 361.047 336.991 360.374 337.4C359.925 337.584 359.439 337.661 358.955 337.626C358.471 337.59 358.002 337.443 357.585 337.196L306.993 307.98C306.127 307.488 305.971 306.778 306.644 306.381C307.092 306.195 307.578 306.115 308.062 306.148C308.546 306.182 309.016 306.327 309.434 306.574V306.574Z" fill="#FAFAFA"/>
<path d="M277.129 390.949C279.4 389.799 281.91 389.2 284.456 389.2C287.002 389.2 289.513 389.799 291.784 390.949C295.824 393.282 295.824 397.069 291.784 399.365C289.515 400.521 287.004 401.124 284.456 401.124C281.909 401.124 279.398 400.521 277.129 399.365C273.125 397.069 273.125 393.282 277.129 390.949Z" fill="#E6E6E6"/>
<path d="M260.032 383.904L243.609 393.402C242.643 393.894 241.574 394.15 240.489 394.15C239.405 394.15 238.336 393.894 237.369 393.402L180.093 360.339C178.362 359.342 178.362 357.731 180.093 356.733L198.283 346.249C199.25 345.757 200.319 345.5 201.403 345.5C202.488 345.5 203.557 345.757 204.523 346.249L274.688 386.753L260.032 383.904Z" fill="#E6E6E6"/>
<path d="M201.794 351.659L252.386 380.874C253.251 381.367 253.408 382.077 252.734 382.473C252.286 382.66 251.801 382.74 251.317 382.706C250.833 382.673 250.363 382.527 249.945 382.281L199.353 353.066C198.488 352.573 198.332 351.863 199.005 351.467C199.453 351.28 199.938 351.2 200.422 351.234C200.906 351.267 201.376 351.413 201.794 351.659V351.659Z" fill="#FAFAFA"/>
<path d="M196.889 354.496L247.493 383.712C248.358 384.205 248.503 384.914 247.829 385.311C247.383 385.497 246.9 385.577 246.418 385.544C245.936 385.51 245.468 385.365 245.052 385.118L194.448 355.867C193.595 355.374 193.438 354.665 194.112 354.268C194.56 354.087 195.045 354.013 195.527 354.053C196.01 354.092 196.476 354.244 196.889 354.496Z" fill="#FAFAFA"/>
<path d="M191.996 357.334L242.599 386.549C243.453 387.042 243.609 387.751 242.936 388.148C242.49 388.335 242.007 388.414 241.525 388.381C241.042 388.348 240.575 388.202 240.159 387.956L189.555 358.74C188.689 358.248 188.545 357.538 189.218 357.141C189.664 356.955 190.148 356.875 190.63 356.909C191.112 356.942 191.58 357.088 191.996 357.334V357.334Z" fill="#FAFAFA"/>
<path d="M218.494 317.611C220.763 316.455 223.274 315.852 225.822 315.852C228.369 315.852 230.88 316.455 233.149 317.611C237.201 319.943 237.201 323.73 233.149 326.027C230.878 327.177 228.368 327.776 225.822 327.776C223.275 327.776 220.765 327.177 218.494 326.027C214.454 323.73 214.454 319.943 218.494 317.611Z" fill="#E6E6E6"/>
<path d="M295.968 359.474C297.687 360.472 297.687 362.083 295.968 363.081L282.587 370.751C281.618 371.243 280.547 371.5 279.461 371.5C278.375 371.5 277.304 371.243 276.335 370.751L233.738 346.249C232.019 345.251 232.019 343.64 233.738 342.642L245.364 335.993L240.471 327.578L295.968 359.474Z" fill="#E6E6E6"/>
<path d="M252.686 338.711L289.368 359.883C290.233 360.388 290.39 361.085 289.716 361.494C289.268 361.677 288.783 361.754 288.299 361.721C287.816 361.688 287.347 361.544 286.927 361.301L250.198 340.117C249.332 339.612 249.176 338.915 249.849 338.506C250.305 338.314 250.799 338.233 251.292 338.268C251.785 338.304 252.263 338.455 252.686 338.711Z" fill="#FAFAFA"/>
<path d="M247.733 341.548L284.426 362.72C285.292 363.225 285.448 363.922 284.775 364.331C284.326 364.514 283.842 364.592 283.358 364.559C282.875 364.525 282.405 364.382 281.986 364.139L245.292 342.955C244.439 342.45 244.282 341.752 244.956 341.344C245.403 341.16 245.886 341.083 246.368 341.118C246.851 341.153 247.318 341.301 247.733 341.548V341.548Z" fill="#FAFAFA"/>
<path d="M242.84 344.385L279.533 365.557C280.399 366.062 280.543 366.76 279.87 367.168C279.423 367.351 278.94 367.429 278.459 367.396C277.977 367.362 277.51 367.219 277.093 366.976L240.399 345.792C239.534 345.287 239.389 344.59 240.063 344.181C240.51 343.997 240.993 343.92 241.475 343.955C241.957 343.991 242.425 344.138 242.84 344.385V344.385Z" fill="#FAFAFA"/>
<path d="M340.621 354.292C342.892 353.142 345.402 352.542 347.948 352.542C350.494 352.542 353.005 353.142 355.276 354.292C359.316 356.636 359.316 360.424 355.276 362.708C353.005 363.858 350.494 364.458 347.948 364.458C345.402 364.458 342.892 363.858 340.621 362.708C336.569 360.424 336.569 356.636 340.621 354.292Z" fill="#E6E6E6"/>
<path d="M323.524 347.247L316.888 351.058C315.919 351.55 314.848 351.806 313.762 351.806C312.675 351.806 311.604 351.55 310.636 351.058L282.743 334.947C281.024 333.95 281.024 332.339 282.743 331.341L291.159 326.532C292.128 326.039 293.199 325.783 294.285 325.783C295.371 325.783 296.442 326.039 297.411 326.532L338.288 350.108L323.524 347.247Z" fill="#E6E6E6"/>
<path d="M295.355 329.417L319.833 343.556C320.699 344.049 320.855 344.758 320.182 345.155C319.734 345.341 319.249 345.421 318.765 345.388C318.281 345.354 317.811 345.209 317.393 344.962L292.914 330.824C292.049 330.331 291.905 329.621 292.578 329.225C293.024 329.038 293.507 328.958 293.989 328.992C294.471 329.025 294.939 329.171 295.355 329.417V329.417Z" fill="#FAFAFA"/>
<path d="M290.462 332.302L314.94 346.441C315.806 346.934 315.95 347.643 315.277 348.04C314.831 348.227 314.347 348.306 313.865 348.273C313.383 348.24 312.915 348.094 312.499 347.848L288.021 333.709C287.155 333.216 286.999 332.507 287.672 332.11C288.12 331.923 288.606 331.844 289.09 331.877C289.574 331.91 290.044 332.056 290.462 332.302Z" fill="#FAFAFA"/>
<path d="M145.251 359.895C147.52 358.744 150.029 358.145 152.573 358.145C155.117 358.145 157.625 358.744 159.895 359.895C163.946 362.239 163.946 366.026 159.895 368.311C157.625 369.461 155.117 370.06 152.573 370.06C150.029 370.06 147.52 369.461 145.251 368.311C141.199 366.026 141.199 362.239 145.251 359.895Z" fill="#E6E6E6"/>
<path d="M203.08 390.529C204.8 391.526 204.8 393.137 203.08 394.135L194.664 399.005C193.696 399.497 192.625 399.753 191.539 399.753C190.452 399.753 189.381 399.497 188.413 399.005L165.449 385.683C163.73 384.685 163.73 383.074 165.449 382.077L172.062 378.229L167.181 369.813L203.08 390.529Z" fill="#E6E6E6"/>
<path d="M179.131 380.718L197.863 391.538C198.728 392.031 198.885 392.741 198.211 393.137C197.763 393.324 197.278 393.404 196.794 393.371C196.31 393.337 195.84 393.191 195.422 392.945L176.691 382.125C175.825 381.632 175.669 380.922 176.342 380.526C176.79 380.339 177.275 380.259 177.759 380.293C178.244 380.326 178.713 380.472 179.131 380.718Z" fill="#FAFAFA"/>
<path d="M174.238 383.519L192.969 394.34C193.835 394.833 193.991 395.542 193.306 395.939C192.86 396.125 192.377 396.205 191.895 396.172C191.412 396.138 190.945 395.993 190.529 395.746L171.785 384.926C170.932 384.433 170.775 383.724 171.449 383.327C171.897 383.14 172.382 383.06 172.866 383.094C173.35 383.127 173.82 383.273 174.238 383.519V383.519Z" fill="#FAFAFA"/>
<path d="M369.619 289.91C370.113 290.16 370.659 290.29 371.212 290.29C371.766 290.29 372.311 290.16 372.805 289.91C373.002 289.85 373.175 289.728 373.297 289.563C373.42 289.397 373.486 289.196 373.486 288.991C373.486 288.785 373.42 288.584 373.297 288.419C373.175 288.253 373.002 288.131 372.805 288.071C372.313 287.816 371.767 287.683 371.212 287.683C370.658 287.683 370.112 287.816 369.619 288.071C369.422 288.131 369.25 288.253 369.128 288.419C369.005 288.584 368.939 288.785 368.939 288.991C368.939 289.196 369.005 289.397 369.128 289.563C369.25 289.728 369.422 289.85 369.619 289.91V289.91Z" fill="#263238"/>
<path d="M374.717 304.386C375.707 304.884 376.8 305.143 377.909 305.143C379.017 305.143 380.111 304.884 381.101 304.386C382.856 303.364 382.856 301.717 381.101 300.695C380.111 300.197 379.017 299.937 377.909 299.937C376.8 299.937 375.707 300.197 374.717 300.695C372.914 301.765 372.914 303.364 374.717 304.386Z" fill="#263238"/>
<path d="M370.221 297.966C371.423 297.292 371.327 296.15 370.076 295.429L349.085 283.31C348.409 282.953 347.659 282.76 346.895 282.745C346.13 282.73 345.373 282.895 344.684 283.226C343.482 283.911 343.578 285.041 344.829 285.762L365.82 297.893C366.495 298.255 367.246 298.45 368.012 298.462C368.777 298.475 369.534 298.305 370.221 297.966Z" fill="#263238"/>
<path d="M112.573 300.935L105.913 297.088C105.781 297.033 105.67 296.936 105.6 296.811L104.398 294.671L108.353 292.387L108.233 292.736L112.573 300.935Z" fill="#0CC4B6"/>
<path opacity="0.2" d="M112.573 300.935L105.913 297.088C105.781 297.033 105.67 296.936 105.6 296.811L104.398 294.671L108.353 292.387L108.233 292.736L112.573 300.935Z" fill="black"/>
<path d="M107.728 292.712L112.345 300.695C112.412 300.801 112.507 300.887 112.62 300.943C112.732 300.998 112.859 301.021 112.984 301.009C113.109 300.996 113.228 300.949 113.328 300.872C113.427 300.795 113.503 300.692 113.547 300.574L118.429 286.52L107.728 292.712Z" fill="#0CC4B6"/>
<path d="M205.353 191.949C205.304 190.832 204.992 189.743 204.442 188.769C203.893 187.796 203.122 186.966 202.191 186.346L199.57 184.832C198.572 184.322 197.468 184.056 196.348 184.056C195.228 184.056 194.123 184.322 193.126 184.832L88.2516 245.342C87.313 245.952 86.5319 246.776 85.972 247.745C85.412 248.715 85.0891 249.803 85.0295 250.921V291.666C85.091 292.783 85.4147 293.87 85.9745 294.84C86.5343 295.809 87.3143 296.632 88.2516 297.244L90.8845 298.759C91.8817 299.263 92.9833 299.526 94.1006 299.526C95.2179 299.526 96.3196 299.263 97.3167 298.759L202.431 238.044C205.329 236.385 205.353 234.738 205.353 232.682V191.949Z" fill="#0CC4B6"/>
<path opacity="0.2" d="M84.9693 291.69C85.0308 292.807 85.3546 293.894 85.9143 294.864C86.4741 295.833 87.2542 296.656 88.1914 297.268L90.8244 298.783C91.7323 299.24 92.7264 299.499 93.7417 299.545C94.7569 299.59 95.7703 299.421 96.7155 299.048C95.2006 299.625 94.0465 298.759 94.0465 296.919V256.174C94.0865 255.054 94.4091 253.962 94.9842 253L85.9191 247.771C85.3338 248.729 85.0066 249.822 84.9693 250.945V291.69Z" fill="black"/>
<path opacity="0.4" d="M205.245 191.035C204.872 189.665 203.622 189.232 202.131 190.085L97.2567 250.596C96.307 251.187 95.5279 252.016 94.9964 253L85.9313 247.771C86.4706 246.788 87.2529 245.96 88.2036 245.366L193.054 184.856C194.056 184.354 195.161 184.093 196.282 184.093C197.403 184.093 198.508 184.354 199.51 184.856L202.191 186.346C202.992 186.88 203.676 187.57 204.201 188.376C204.726 189.183 205.081 190.087 205.245 191.035V191.035Z" fill="white"/>
<path d="M102.703 256.884L194.977 203.503C196.059 202.878 196.937 203.166 196.937 204.14C196.856 204.74 196.637 205.313 196.297 205.814C195.957 206.314 195.505 206.729 194.977 207.026L102.739 260.406C101.657 261.032 100.779 260.755 100.779 259.781C100.856 259.183 101.069 258.611 101.403 258.108C101.737 257.606 102.181 257.187 102.703 256.884V256.884Z" fill="white"/>
<path d="M102.703 275.062L179.131 230.927C180.201 230.302 181.079 230.59 181.079 231.552C180.999 232.152 180.781 232.725 180.443 233.228C180.106 233.73 179.657 234.148 179.131 234.449L102.703 278.585C101.621 279.21 100.743 278.921 100.743 277.948C100.822 277.347 101.041 276.773 101.381 276.272C101.721 275.771 102.174 275.357 102.703 275.062V275.062Z" fill="white"/>
<path d="M102.703 283.911L192.669 231.877C193.739 231.251 194.617 231.54 194.617 232.514C194.536 233.112 194.319 233.684 193.981 234.185C193.643 234.685 193.194 235.101 192.669 235.399L102.703 287.434C101.621 288.047 100.743 287.77 100.743 286.796C100.822 286.196 101.041 285.622 101.381 285.121C101.721 284.62 102.174 284.206 102.703 283.911V283.911Z" fill="white"/>
<path d="M102.703 265.769L192.669 213.734C193.739 213.121 194.617 213.398 194.617 214.371C194.536 214.971 194.319 215.545 193.981 216.047C193.643 216.55 193.194 216.968 192.669 217.269L102.703 269.303C101.621 269.928 100.743 269.64 100.743 268.666C100.824 268.065 101.043 267.49 101.383 266.987C101.723 266.485 102.175 266.068 102.703 265.769V265.769Z" fill="white"/>
<path d="M112.573 100.264L105.913 96.4164C105.781 96.3619 105.67 96.2645 105.6 96.1398L104.398 93.9998L108.353 91.7155L108.233 92.0641L112.573 100.264Z" fill="#0CC4B6"/>
<path opacity="0.2" d="M112.573 100.264L105.913 96.4164C105.781 96.3619 105.67 96.2645 105.6 96.1398L104.398 93.9998L108.353 91.7155L108.233 92.0641L112.573 100.264Z" fill="black"/>
<path d="M107.728 92.0401L112.345 100.023C112.414 100.126 112.51 100.208 112.622 100.261C112.734 100.314 112.859 100.335 112.982 100.323C113.106 100.311 113.223 100.265 113.323 100.191C113.422 100.117 113.5 100.018 113.547 99.903L118.429 85.8364L107.728 92.0401Z" fill="#0CC4B6"/>
<path d="M194.496 7.86891C194.437 6.75097 194.114 5.66294 193.554 4.6935C192.994 3.72405 192.213 2.90064 191.274 2.29037L188.653 0.775504C187.656 0.265779 186.552 0 185.431 0C184.311 0 183.207 0.265779 182.209 0.775504L88.1914 55.0341C87.2528 55.6444 86.4717 56.4678 85.9118 57.4372C85.3519 58.4067 85.0289 59.4947 84.9693 60.6126V91.0061C85.0289 92.1241 85.3519 93.2121 85.9118 94.1815C86.4717 95.151 87.2528 95.9744 88.1914 96.5847L90.8244 98.0995C91.8198 98.6092 92.9221 98.8749 94.0405 98.8749C95.1588 98.8749 96.2611 98.6092 97.2565 98.0995L191.575 43.6245C194.472 41.9654 194.496 40.3183 194.496 38.2624V7.86891Z" fill="#0CC4B6"/>
<path opacity="0.2" d="M84.9693 91.0061C85.0289 92.1241 85.3519 93.2121 85.9118 94.1815C86.4717 95.151 87.2528 95.9744 88.1914 96.5847L90.8244 98.0995C91.7314 98.558 92.7251 98.8197 93.7404 98.8673C94.7556 98.915 95.7695 98.7476 96.7155 98.3761C95.2006 98.9411 94.0465 98.0755 94.0465 96.248V65.8425C94.0865 64.7224 94.4091 63.6306 94.9842 62.6685L85.9191 57.4386C85.3353 58.3976 85.0082 59.4907 84.9693 60.6126V91.0061Z" fill="black"/>
<path opacity="0.4" d="M194.388 6.95518C194.016 5.58458 192.765 5.15177 191.274 6.00538L97.2567 60.276C96.3041 60.8638 95.5242 61.6935 94.9964 62.6806L85.9313 57.4507C86.467 56.4654 87.2501 55.6367 88.2036 55.0461L182.197 0.775491C183.199 0.273995 184.305 0.0128937 185.425 0.0128937C186.546 0.0128937 187.651 0.273995 188.654 0.775491L191.274 2.29035C192.082 2.81647 192.775 3.50124 193.31 4.30312C193.846 5.10499 194.212 6.00726 194.388 6.95518V6.95518Z" fill="white"/>
<path d="M102.703 74.3787L168.263 36.495C169.345 35.8699 170.223 36.1584 170.223 37.1322C170.14 37.7316 169.92 38.3037 169.58 38.8042C169.24 39.3047 168.789 39.7199 168.263 40.0177L102.703 77.9013C101.621 78.5265 100.743 78.238 100.743 77.2761C100.824 76.6747 101.043 76.1001 101.383 75.5974C101.723 75.0948 102.175 74.6776 102.703 74.3787V74.3787Z" fill="white"/>
<path d="M102.703 83.2274L181.752 37.4448C182.834 36.8197 183.712 37.1082 183.712 38.082C183.631 38.6819 183.412 39.2548 183.072 39.7556C182.732 40.2563 182.28 40.6712 181.752 40.9675L102.655 86.7501C101.573 87.3753 100.695 87.0867 100.695 86.1129C100.781 85.5085 101.007 84.9327 101.356 84.4316C101.705 83.9305 102.166 83.5181 102.703 83.2274V83.2274Z" fill="white"/>
<path d="M102.703 65.0971L181.752 19.3146C182.834 18.6894 183.712 18.9659 183.712 19.9397C183.631 20.5412 183.412 21.1158 183.072 21.6184C182.732 22.1211 182.28 22.5383 181.752 22.8372L102.703 68.6198C101.621 69.245 100.743 68.9564 100.743 67.9826C100.824 67.3827 101.043 66.8098 101.383 66.3091C101.723 65.8083 102.175 65.3934 102.703 65.0971V65.0971Z" fill="white"/>
<path d="M270.276 58.7371L263.615 54.8898C263.483 54.8354 263.373 54.738 263.303 54.6133L262.1 52.4733L266.056 50.1889L265.911 50.4895L270.276 58.7371Z" fill="#263238"/>
<path d="M265.431 50.4895L270.047 58.4726C270.116 58.5756 270.212 58.6578 270.324 58.7107C270.437 58.7635 270.561 58.7848 270.684 58.7725C270.808 58.7602 270.926 58.7146 271.025 58.6406C271.125 58.5666 271.202 58.467 271.25 58.3524L276.131 44.2858L265.431 50.4895Z" fill="#37474F"/>
<path d="M287.18 7.91701C287.109 6.80839 286.78 5.73168 286.219 4.7733C285.657 3.81492 284.878 3.00158 283.946 2.39857L281.325 0.883709C280.324 0.38416 279.221 0.124115 278.102 0.124115C276.984 0.124115 275.881 0.38416 274.88 0.883709L185.551 52.2929C184.613 52.9032 183.832 53.7266 183.272 54.696C182.712 55.6655 182.389 56.7535 182.329 57.8715V84.3215C182.389 85.4394 182.712 86.5275 183.272 87.4969C183.832 88.4663 184.613 89.2898 185.551 89.9L188.172 91.4149C189.17 91.9246 190.274 92.1904 191.394 92.1904C192.515 92.1904 193.619 91.9246 194.617 91.4149L284.258 39.7171C287.156 38.07 287.18 36.4109 287.18 34.355V7.91701Z" fill="#37474F"/>
<path d="M182.329 84.2854C182.389 85.4034 182.712 86.4914 183.272 87.4608C183.832 88.4303 184.613 89.2537 185.551 89.864L188.172 91.3788C189.079 91.8373 190.073 92.099 191.088 92.1466C192.104 92.1943 193.118 92.0269 194.064 91.6553C192.549 92.2204 191.394 91.3548 191.394 89.5273V63.0773C191.433 61.9553 191.761 60.8623 192.344 59.9033L183.279 54.6734C182.695 55.6324 182.368 56.7254 182.329 57.8474V84.2854Z" fill="#263238"/>
<path d="M287.072 7.00328C286.699 5.63268 285.449 5.19986 283.958 6.05348L194.617 57.5348C193.661 58.1223 192.877 58.9518 192.344 59.9394L183.291 54.7095C183.823 53.725 184.602 52.8962 185.552 52.3049L274.88 0.823587C275.883 0.32209 276.988 0.0609894 278.109 0.0609894C279.229 0.0609894 280.335 0.32209 281.337 0.823587L283.946 2.39857C284.751 2.91519 285.443 3.58955 285.98 4.38096C286.517 5.17237 286.889 6.06441 287.072 7.00328V7.00328Z" fill="#455A64"/>
<path d="M200.051 65.025L260.946 29.9186C262.028 29.3054 262.906 29.582 262.906 30.5558C262.827 31.1563 262.608 31.7299 262.268 32.2309C261.928 32.732 261.475 33.1464 260.946 33.4413L200.051 68.5236C198.981 69.1368 198.103 68.8602 198.103 67.8864C198.185 67.2916 198.404 66.7239 198.742 66.2275C199.08 65.7311 199.528 65.3196 200.051 65.025V65.025Z" fill="#0CC4B6"/>
<path d="M200.051 73.8617L274.496 30.8804C275.566 30.2552 276.443 30.5318 276.443 31.5056C276.363 32.1057 276.145 32.6792 275.808 33.1816C275.47 33.6841 275.021 34.102 274.496 34.4031L200.051 77.3964C198.981 78.0095 198.103 77.733 198.103 76.7592C198.184 76.1591 198.401 75.5856 198.739 75.0832C199.077 74.5807 199.526 74.1627 200.051 73.8617V73.8617Z" fill="#0CC4B6"/>
<path d="M112.573 196.59L105.913 192.743C105.781 192.688 105.67 192.591 105.6 192.466L104.398 190.326L108.353 188.042L108.233 188.39L112.573 196.59Z" fill="#0CC4B6"/>
<path opacity="0.2" d="M112.573 196.59L105.913 192.743C105.781 192.688 105.67 192.591 105.6 192.466L104.398 190.326L108.353 188.042L108.233 188.39L112.573 196.59Z" fill="black"/>
<path d="M107.728 188.366L112.345 196.349C112.413 196.453 112.508 196.536 112.62 196.589C112.731 196.643 112.855 196.666 112.979 196.655C113.102 196.643 113.22 196.599 113.32 196.526C113.42 196.454 113.499 196.355 113.547 196.241L118.429 182.175L107.728 188.366Z" fill="#0CC4B6"/>
<path d="M157.527 123.9C157.465 122.783 157.141 121.696 156.581 120.726C156.022 119.757 155.242 118.933 154.304 118.322L151.695 116.807C150.695 116.307 149.592 116.047 148.473 116.047C147.355 116.047 146.252 116.307 145.251 116.807L88.2034 149.713C87.2662 150.325 86.4861 151.149 85.9263 152.118C85.3666 153.087 85.0428 154.174 84.9813 155.292V187.344C85.0428 188.462 85.3666 189.549 85.9263 190.518C86.4861 191.487 87.2662 192.311 88.2034 192.923L90.8364 194.438C91.8335 194.942 92.9352 195.204 94.0525 195.204C95.1698 195.204 96.2714 194.942 97.2686 194.438L154.617 161.303C157.514 159.656 157.539 157.997 157.539 155.953L157.527 123.9Z" fill="#0CC4B6"/>
<path opacity="0.2" d="M84.9693 187.344C85.0308 188.462 85.3546 189.549 85.9143 190.518C86.4741 191.487 87.2542 192.311 88.1914 192.923L90.8244 194.438C91.7323 194.894 92.7264 195.154 93.7417 195.199C94.7569 195.245 95.7703 195.076 96.7155 194.702C95.2006 195.279 94.0465 194.414 94.0465 192.574V160.534C94.085 159.413 94.4076 158.321 94.9842 157.36L85.9191 152.118C85.3353 153.077 85.0082 154.17 84.9693 155.292V187.344Z" fill="black"/>
<path opacity="0.4" d="M157.418 122.987C157.046 121.616 155.795 121.183 154.317 122.037L97.2567 154.955C96.3041 155.543 95.5242 156.372 94.9964 157.36L85.9313 152.13C86.467 151.144 87.2501 150.316 88.2036 149.725L145.239 116.807C146.24 116.307 147.343 116.047 148.462 116.047C149.58 116.047 150.683 116.307 151.684 116.807L154.317 118.334C155.122 118.858 155.813 119.541 156.346 120.341C156.88 121.141 157.244 122.041 157.418 122.987V122.987Z" fill="white"/>
<path d="M102.703 170.717L131.257 154.174C132.327 153.56 133.205 153.837 133.205 154.811C133.124 155.411 132.907 155.984 132.569 156.487C132.231 156.989 131.782 157.407 131.257 157.708L102.655 174.24C101.573 174.865 100.695 174.576 100.695 173.602C100.779 172.997 101.005 172.421 101.354 171.919C101.703 171.418 102.165 171.006 102.703 170.717V170.717Z" fill="white"/>
<path d="M102.703 179.566L144.843 155.087C145.925 154.462 146.79 154.751 146.79 155.725C146.713 156.324 146.496 156.897 146.158 157.398C145.82 157.899 145.369 158.314 144.843 158.61L102.703 183.04C101.621 183.653 100.743 183.377 100.743 182.403C100.829 181.811 101.051 181.247 101.391 180.755C101.731 180.263 102.18 179.856 102.703 179.566V179.566Z" fill="white"/>
<path d="M102.703 161.423L144.843 137.053C145.925 136.44 146.79 136.717 146.79 137.69C146.712 138.291 146.496 138.866 146.158 139.369C145.82 139.872 145.37 140.289 144.843 140.588L102.703 164.946C101.621 165.571 100.743 165.283 100.743 164.321C100.824 163.719 101.043 163.145 101.383 162.642C101.723 162.139 102.175 161.722 102.703 161.423V161.423Z" fill="white"/>
<path d="M276.732 231.071L273.871 225.685L276.179 219.036V214.961L269.122 219.036V223.112L272.151 228.354C272.197 228.438 272.269 228.506 272.356 228.546V228.546L276.732 231.071Z" fill="#0CC4B6"/>
<path d="M276.732 231.047L272.392 228.546C272.308 228.507 272.237 228.444 272.187 228.366L271.37 226.947L273.582 225.673L276.612 230.915C276.645 230.964 276.686 231.009 276.732 231.047V231.047Z" fill="#E0E0E0"/>
<path d="M287.853 194.354C287.805 193.629 287.589 192.926 287.222 192.3C286.854 191.674 286.346 191.142 285.737 190.747L284.005 189.749C283.352 189.417 282.629 189.244 281.896 189.244C281.162 189.244 280.439 189.417 279.786 189.749L239.906 212.796C239.297 213.192 238.789 213.723 238.421 214.349C238.054 214.976 237.838 215.679 237.79 216.403V237.034C237.838 237.759 238.054 238.462 238.421 239.088C238.789 239.714 239.297 240.246 239.906 240.641L241.625 241.639C242.281 241.971 243.006 242.144 243.741 242.144C244.476 242.144 245.201 241.971 245.857 241.639L273.582 225.637L276.612 230.879C276.653 230.956 276.717 231.019 276.795 231.06C276.873 231.101 276.961 231.119 277.048 231.11C277.136 231.101 277.219 231.066 277.286 231.01C277.354 230.954 277.404 230.879 277.429 230.794L280.627 221.561L285.737 218.603C286.352 218.201 286.865 217.659 287.232 217.022C287.6 216.385 287.812 215.671 287.853 214.936V194.354Z" fill="#E6E6E6"/>
<path d="M237.79 237.022C237.838 237.747 238.054 238.45 238.421 239.076C238.789 239.702 239.297 240.234 239.906 240.629L241.625 241.627C242.222 241.928 242.875 242.098 243.543 242.127C244.21 242.156 244.876 242.043 245.497 241.795C244.499 242.18 243.741 241.615 243.741 240.413V219.83C243.769 219.096 243.98 218.381 244.355 217.75L238.403 214.311C238.029 214.943 237.818 215.658 237.79 216.391V237.022Z" fill="#E0E0E0"/>
<path d="M287.781 193.752C287.528 192.851 286.711 192.55 285.737 193.127L245.858 216.175C245.228 216.556 244.713 217.1 244.367 217.75L238.355 214.311C238.709 213.667 239.222 213.125 239.846 212.736L279.714 189.689C280.372 189.366 281.096 189.198 281.83 189.198C282.563 189.198 283.287 189.366 283.946 189.689L285.677 190.687C286.219 191.027 286.685 191.474 287.047 192.001C287.409 192.529 287.658 193.125 287.781 193.752V193.752Z" fill="#F0F0F0"/>
<path d="M255.391 220.166C254.57 220.7 253.885 221.421 253.395 222.269C252.904 223.117 252.62 224.069 252.566 225.048C252.566 226.851 253.768 227.584 255.391 226.683C256.213 226.145 256.896 225.423 257.387 224.573C257.878 223.723 258.162 222.769 258.217 221.789C258.217 219.998 256.942 219.265 255.391 220.166" fill="white"/>
<path d="M265.791 214.143C264.97 214.68 264.286 215.403 263.796 216.253C263.305 217.103 263.021 218.056 262.966 219.036C262.966 220.828 264.24 221.561 265.791 220.659C266.613 220.125 267.297 219.405 267.788 218.557C268.279 217.709 268.563 216.757 268.617 215.778C268.617 213.999 267.354 213.241 265.791 214.143Z" fill="white"/>
<path d="M276.203 208.12C275.38 208.655 274.696 209.378 274.205 210.228C273.714 211.078 273.43 212.032 273.378 213.013C273.378 214.816 274.64 215.538 276.203 214.648C277.023 214.11 277.705 213.387 278.193 212.537C278.682 211.687 278.964 210.734 279.016 209.755C279.016 207.987 277.754 207.23 276.203 208.12Z" fill="white"/>
<path d="M270.408 148.439L266.044 140.239L269.554 130.104V123.9L258.806 130.104V136.308L263.435 144.315C263.505 144.44 263.615 144.537 263.747 144.591V144.591L270.408 148.439Z" fill="#0CC4B6"/>
<path d="M263.735 144.591C263.599 144.538 263.485 144.441 263.411 144.315L262.209 142.175L265.575 140.227L270.192 148.198C270.245 148.301 270.324 148.388 270.42 148.451L263.735 144.591Z" fill="#263238"/>
<path d="M287.288 92.4969C287.226 91.3795 286.902 90.2921 286.343 89.323C285.783 88.3538 285.003 87.5301 284.066 86.9184L281.445 85.3554C280.444 84.8559 279.341 84.5958 278.223 84.5958C277.104 84.5958 276.001 84.8559 275 85.3554L194.448 131.835C193.51 132.446 192.728 133.269 192.169 134.238C191.609 135.208 191.286 136.296 191.226 137.414V168.829C191.292 169.947 191.618 171.035 192.177 172.005C192.736 172.975 193.514 173.802 194.448 174.42L197.069 175.935C198.07 176.434 199.173 176.694 200.291 176.694C201.41 176.694 202.513 176.434 203.513 175.935L265.551 140.167L270.155 148.15C270.224 148.253 270.32 148.335 270.432 148.388C270.545 148.441 270.669 148.462 270.792 148.45C270.916 148.438 271.034 148.392 271.133 148.318C271.233 148.244 271.31 148.145 271.358 148.03L276.227 133.975L284.005 129.455C284.942 128.842 285.722 128.019 286.281 127.05C286.841 126.081 287.165 124.994 287.228 123.876L287.288 92.4969Z" fill="#37474F"/>
<path d="M210.823 141.514L277.706 102.788C278.788 102.163 279.666 102.452 279.666 103.426C279.585 104.025 279.366 104.598 279.026 105.099C278.685 105.6 278.234 106.015 277.706 106.311L210.823 145.036C209.753 145.661 208.876 145.385 208.876 144.411C208.956 143.811 209.174 143.238 209.511 142.735C209.849 142.233 210.298 141.815 210.823 141.514V141.514Z" fill="#0CC4B6"/>
<path d="M210.823 150.362L261.884 120.883C262.966 120.257 263.844 120.546 263.844 121.52C263.765 122.12 263.546 122.694 263.206 123.195C262.866 123.696 262.413 124.11 261.884 124.405L210.823 153.885C209.753 154.51 208.876 154.222 208.876 153.26C208.956 152.66 209.174 152.086 209.511 151.584C209.849 151.081 210.298 150.663 210.823 150.362V150.362Z" fill="#0CC4B6"/>
<path d="M210.823 159.211L275.434 121.832C276.504 121.219 277.381 121.496 277.381 122.47C277.301 123.07 277.083 123.643 276.746 124.146C276.408 124.648 275.959 125.066 275.434 125.367L210.823 162.734C209.753 163.359 208.876 163.07 208.876 162.097C208.956 161.498 209.174 160.926 209.512 160.426C209.849 159.925 210.298 159.509 210.823 159.211Z" fill="#0CC4B6"/>
<path d="M191.238 168.877C191.305 169.995 191.63 171.083 192.189 172.053C192.749 173.023 193.526 173.85 194.46 174.468L197.081 175.983C197.992 176.439 198.988 176.698 200.006 176.741C201.023 176.785 202.039 176.612 202.985 176.235C201.458 176.812 200.303 175.959 200.303 174.119V142.692C200.342 141.57 200.67 140.477 201.253 139.518L192.188 134.288C191.604 135.247 191.277 136.34 191.238 137.462V168.877Z" fill="#263238"/>
<path d="M287.18 91.5832C286.807 90.2126 285.557 89.7798 284.066 90.6334L203.513 137.125C202.558 137.713 201.774 138.542 201.241 139.53L192.188 134.3C192.72 133.316 193.499 132.487 194.448 131.895L275.001 85.4035C276.001 84.904 277.104 84.6439 278.223 84.6439C279.341 84.6439 280.444 84.904 281.445 85.4035L284.078 86.9304C284.883 87.4553 285.573 88.1384 286.107 88.9383C286.64 89.7381 287.005 90.638 287.18 91.5832V91.5832Z" fill="#455A64"/>
<path d="M437.836 126.016C437.764 125.055 435.973 114.859 434.747 109.185L422.724 112.791L424.648 120.786L434.614 130.405C435.614 130.23 436.507 129.676 437.108 128.858C437.708 128.041 437.969 127.022 437.836 126.016V126.016Z" fill="#FFA8A7"/>
<path d="M427.786 97.1137H389.529V55.8036C389.529 53.6737 389.949 51.5647 390.764 49.597C391.579 47.6292 392.774 45.8413 394.28 44.3352C395.786 42.8292 397.574 41.6345 399.541 40.8195C401.509 40.0044 403.618 39.5849 405.748 39.5849H411.579C413.709 39.5849 415.818 40.0044 417.786 40.8195C419.753 41.6345 421.541 42.8292 423.047 44.3352C424.553 45.8413 425.748 47.6292 426.563 49.597C427.378 51.5647 427.798 53.6737 427.798 55.8036V97.1137H427.786Z" fill="#263238"/>
<path d="M379.875 104.52L374.2 114.895L383.025 122.458L391.092 109.653L379.875 104.52Z" fill="#F28F8F"/>
<path d="M372.193 116.506C370.99 119.777 368.105 124.922 371.447 127.483C374.789 130.044 384.107 126.966 384.107 126.966L372.193 116.506Z" fill="#F28F8F"/>
<path d="M401.131 81.3639C395.517 81.3639 389.325 83.4679 387.197 87.8682C385.069 92.2685 378.408 105.999 378.408 105.999C378.408 105.999 383.374 113.212 391.261 112.755L401.131 81.3639Z" fill="#EBEBEB"/>
<path d="M393.112 264.494C391.012 266.952 388.681 269.203 386.151 271.215C385.744 271.499 385.414 271.879 385.189 272.321C384.888 273.054 384.444 274.846 387.762 275.82C389.438 276.305 391.2 276.424 392.926 276.166C394.652 275.909 396.303 275.282 397.765 274.329C400.362 272.513 400.302 269.027 402.718 266.899C404.509 265.336 406.83 264.831 408.249 262.835C409.234 261.44 408.862 259.673 408.249 257.485C407.527 255.08 407.154 253.301 406.361 253.529L406.553 254.636C405.64 256.271 400.542 257.04 398.137 256.03C396.609 258.936 394.931 261.761 393.112 264.494V264.494Z" fill="#263238"/>
<path d="M390.948 266.899C391.707 266.135 392.425 265.332 393.1 264.494C394.525 262.435 395.821 260.291 396.984 258.074C397.633 256.747 397.848 255.25 397.597 253.794L396.899 247.963L405.688 246.664L406.494 254.624C406.782 256.439 405.363 258.122 402.827 260.551C400.29 262.979 397.188 268.498 394.844 269.977C392.499 271.455 390.78 271.479 389.722 270.842C388.664 270.205 388.544 269.676 390.948 266.899Z" fill="#FFA8A7"/>
<path d="M420.091 265.997V264.795C419.61 266.238 417.35 272.441 413.948 275.615C411.23 278.092 407.527 280.953 406.59 283.707C405.652 286.46 411.735 287.542 414.272 287.097C417.663 286.509 420.765 284.819 423.097 282.288C424.564 280.508 425.501 278.38 426.535 276.974C427.569 275.567 429.974 273.992 430.539 272.357C430.704 270.836 430.536 269.298 430.046 267.849C429.637 266.322 429.216 264.651 428.687 264.795V265.696C427.465 266.658 425.95 267.171 424.395 267.151C423.133 267.211 420.079 266.959 420.091 265.997Z" fill="#263238"/>
<path d="M411.483 277.719C412.324 276.974 413.178 276.24 413.948 275.543C416.237 273.115 418.02 270.253 419.189 267.127C419.788 265.691 420.094 264.15 420.091 262.595V257.701H428.687V265.696V265.913C428.267 267.692 424.323 272.453 422.075 275.531C420.584 277.611 417.723 280.244 414.308 280.701C411.038 281.182 409.391 280.124 411.483 277.719Z" fill="#FFA8A7"/>
<path d="M427.016 132.34C433.689 146.9 426.776 198.201 426.776 198.201C426.98 200.605 429.673 205.21 430.683 215.622C431.886 227.909 428.82 258.759 428.82 258.759C427.509 259.522 426.032 259.953 424.517 260.014C423.002 260.074 421.495 259.763 420.127 259.108C420.127 259.108 411.928 212.64 410.389 200.413C409.042 189.749 406.782 172.075 406.782 172.075L403.38 200.281C403.38 200.281 404.943 207.002 405.411 211.558C406.301 219.974 406.229 248.696 406.229 248.696C403.413 250.336 400.112 250.936 396.899 250.392C396.899 250.392 388.556 206.16 386.223 197.792C385.177 194.029 384.696 150.711 388.856 130.212L427.016 132.34Z" fill="#0CC4B6"/>
<path opacity="0.2" d="M406.794 172.075L404.389 153.873C400.748 153.708 397.222 152.548 394.194 150.519C396.647 152.848 399.558 154.642 402.742 155.785L405.147 171.21L404.474 190.879L406.794 172.075Z" fill="black"/>
<path d="M415.222 81.7486C417.676 82.3425 419.964 83.4808 421.919 85.0791C423.873 86.6775 425.442 88.6949 426.511 90.9821C428.07 94.4619 428.212 98.412 426.908 101.995L420.897 119.236C420.897 119.236 428.808 132.028 428.808 139.265C415.583 146.647 394.254 144.243 387.461 139.446C387.269 138.159 388.88 123.095 388.519 116.47C388.135 109.413 387.161 101.442 388.267 97.0776C390.335 88.9743 394.194 81.3639 401.877 81.3639L415.222 81.7486Z" fill="#F5F5F5"/>
<path d="M417.398 81.7486C422.496 82.47 429.986 83.504 432.571 95.6229C435.156 107.742 435.937 112.19 435.937 112.19C435.937 112.19 431.753 117.059 423.289 116.999L420.656 107.682L417.398 81.7486Z" fill="#F5F5F5"/>
<path d="M414.549 91.98C416.325 91.98 418.028 91.2745 419.284 90.0186C420.54 88.7627 421.245 87.0594 421.245 85.2833V65.7704H414.549V91.98Z" fill="#263238"/>
<path d="M395.817 47.3636C393.797 48.5659 391.297 53.6395 391.537 64.2916C391.754 73.3207 394.675 75.5569 396.154 76.1941C397.633 76.8313 400.458 76.4466 403.211 75.9898V81.412C403.211 81.412 399.4 85.8364 399.604 88.3251C399.809 90.8138 405.099 91.3909 408.67 88.9623C410.977 87.2992 412.958 85.2246 414.513 82.8427V69.7259C414.802 70.0813 415.159 70.3756 415.564 70.5918C415.968 70.808 416.411 70.9418 416.867 70.9854C417.324 71.029 417.784 70.9816 418.222 70.8459C418.66 70.7101 419.066 70.4888 419.418 70.1948C422.46 68.175 422.58 63.1735 420.8 61.3821C419.021 59.5907 415.222 60.1799 414.513 62.5844C410.898 62.4304 407.378 61.3811 404.269 59.5306C402.007 58.305 400.064 56.5658 398.596 54.4526C397.128 52.3395 396.176 49.9114 395.817 47.3636Z" fill="#FFA8A7"/>
<path d="M401.624 62.0314C401.622 62.3286 401.731 62.6159 401.928 62.838C402.126 63.06 402.399 63.2009 402.694 63.2336C402.999 63.2344 403.293 63.1193 403.516 62.9118C403.739 62.7042 403.875 62.4196 403.896 62.1155C403.918 61.9583 403.907 61.7982 403.864 61.6455C403.821 61.4929 403.746 61.3509 403.644 61.2287C403.543 61.1065 403.417 61.0068 403.275 60.9359C403.133 60.865 402.978 60.8244 402.82 60.8169C402.661 60.8093 402.503 60.8349 402.355 60.892C402.206 60.9491 402.072 61.0364 401.959 61.1484C401.847 61.2605 401.759 61.3947 401.701 61.5426C401.644 61.6904 401.617 61.8487 401.624 62.0073V62.0314Z" fill="#263238"/>
<path d="M401.324 69.7259L398.679 70.5675C398.727 70.7441 398.81 70.9092 398.923 71.0531C399.037 71.197 399.177 71.3167 399.338 71.4052C399.498 71.4938 399.674 71.5493 399.856 71.5685C400.038 71.5878 400.223 71.5704 400.398 71.5173C400.754 71.3962 401.049 71.142 401.221 70.808C401.394 70.4741 401.431 70.0863 401.324 69.7259V69.7259Z" fill="#F28F8F"/>
<path d="M392.319 58.5448L394.615 56.9457C394.518 56.7915 394.39 56.6586 394.24 56.5552C394.09 56.4517 393.92 56.3798 393.742 56.3438C393.563 56.3078 393.379 56.3085 393.2 56.3459C393.022 56.3832 392.853 56.4564 392.703 56.561C392.395 56.7774 392.182 57.1051 392.11 57.4752C392.039 57.8452 392.113 58.2287 392.319 58.5448V58.5448Z" fill="#263238"/>
<path d="M392.848 61.2018C392.846 61.4226 392.909 61.6392 393.029 61.8247C393.148 62.0102 393.32 62.1566 393.522 62.2457C393.724 62.3347 393.948 62.3626 394.166 62.3259C394.383 62.2892 394.586 62.1895 394.747 62.0391C394.909 61.8887 395.023 61.6942 395.076 61.4796C395.128 61.2651 395.116 61.0399 395.042 60.8318C394.968 60.6238 394.835 60.4421 394.658 60.3091C394.482 60.1762 394.27 60.0978 394.05 60.0837C393.745 60.0829 393.451 60.198 393.228 60.4056C393.005 60.6131 392.869 60.8977 392.848 61.2018Z" fill="#263238"/>
<path d="M398.198 60.5526L398.017 67.3935L394.423 66.2754L398.198 60.5526Z" fill="#F28F8F"/>
<path d="M403.211 75.9898C406.109 75.617 412.084 73.8978 413.022 71.5293C412.645 72.7232 411.911 73.7724 410.918 74.535C409.138 76.0619 403.211 77.7932 403.211 77.7932V75.9898Z" fill="#F28F8F"/>
<path d="M386.139 116.518C384.492 113.453 384.083 113.308 383.097 112.647C382.111 111.986 376.112 111.072 373.623 110.868C370.69 110.615 369.644 111.156 370.461 113.681C372.205 119.079 376.725 129.202 377.915 130.789C378.685 131.823 378.324 132.821 382.159 133.615C385.189 134.24 389.866 134.901 390.996 134.973C392.126 135.045 393.713 135.322 392.691 131.98C391.39 128.194 389.885 124.482 388.183 120.859C386.908 118.117 386.139 116.518 386.139 116.518Z" fill="#263238"/>
<path d="M424.696 120.823C424.696 120.823 400.157 123.023 396.707 121.953C393.256 120.883 391.814 118.911 389.638 117.023C387.461 115.136 385.947 115.593 385.947 116.182C386.391 117.059 387.666 119.897 388.171 120.859C388.832 122.133 385.874 122.217 382.232 121.376C378.589 120.534 377.122 118.406 376.22 119.656C375.318 120.907 378.24 126.966 384.299 129.275C390.359 131.583 394.855 130.044 399.869 130.248C404.882 130.453 427.762 132.653 434.735 130.513C434.916 129.399 434.787 128.258 434.363 127.212C433.939 126.167 433.236 125.258 432.33 124.586C430.066 122.829 427.469 121.549 424.696 120.823Z" fill="#FFA8A7"/>
<path d="M422.772 113.97C421.623 110.875 420.644 107.721 419.838 104.52C419.838 104.52 420.319 111.553 422.303 115.34L422.772 113.97Z" fill="#E0E0E0"/>
</svg>
